<?xml version="1.0" encoding="utf-8"?>
<!-- Generator: Adobe Illustrator 26.5.0, SVG Export Plug-In . SVG Version: 6.00 Build 0)  -->
<svg version="1.1" id="Layer_1" xmlns="http://www.w3.org/2000/svg" xmlns:xlink="http://www.w3.org/1999/xlink" x="0px" y="0px"
	 viewBox="0 0 1196.3 1196.3" style="enable-background:new 0 0 1196.3 1196.3;" xml:space="preserve">
<style type="text/css">
	.agile_0{fill:#068EB3;}
	.agile_1{fill:#F6B642;}
	.agile_2{fill:#8DC63F;}
	.agile_3{fill:#E46056;}
</style>
<path class="agile_0" d="M461,142.2c0,18.6,0,34.7,0,50.9c0.1,20,6.6,26.5,26.5,26.9c184,3.6,338.8,138.6,366.7,319.8
	c1.8,11.8,2.6,23.9,3.9,37H739.7c-2.7-13.7-4.8-27.8-8.2-41.6C704,424.7,607.7,345.3,494.2,339.4c-27-1.4-33.1,4.2-33.5,31.4
	c-0.2,14.6,0,29.3,0,44.5c-47.3-45.5-93.2-89.7-136.9-131.7C370.2,235.8,414.6,190,461,142.2L461,142.2z"/>
<path class="agile_1" d="M857.6,619c-8.2,196.5-174.2,350.6-356.7,355.3c0-4.2,0-8.4,0-12.6c0-32.3,0.1-64.5-0.1-96.8
	c0-6.4,1.2-9.6,8.6-10.6C635.5,837.9,722.7,748.8,739,619H857.6L857.6,619z"/>
<path class="agile_2" d="M1018.2,1054c0-19.3,0-35.9,0-52.4c-0.1-19.2-6.6-25.8-26-25.8c-104.8,0-209.7,0-314.5,0h-15
	c17.6-10.6,32.7-19.1,47.2-28.4c35.2-22.6,66.1-50.3,92.3-82.9c4.9-6.1,10.1-8.1,17.7-8c56.3,0.3,112.6,0.2,168.9,0.2
	c23.6,0,29.1-5.1,29.5-28.2c0.3-15.8,0-31.7,0-47.3c46.6,46,92.2,91,134.6,132.9C1109.4,959.3,1064.8,1005.6,1018.2,1054
	L1018.2,1054z"/>
<path class="agile_2" d="M460.5,857.1v118.7h-12.9c-125.4,0-250.8,0-376.2,0c-22.3,0-28.1-5.8-28.1-28.3s-0.1-45,0-67.6
	c0.1-15.6,7.4-23.2,22.6-23.2c129.3-0.1,258.6,0,387.9,0C455.7,856.7,457.6,856.9,460.5,857.1L460.5,857.1z"/>
<path class="agile_3" d="M355.7,368.6c-20.3,16.5-40.5,30.5-57.8,47.4c-41.9,41-66.1,91.5-73,149.8c-1.1,8.9-3.5,12.6-13.3,12.4
	c-35.3-0.7-70.6-0.2-105.8-0.2C89,494.4,187.4,326.3,281.6,278c1.1,28.2,24.3,40.9,40.5,58.4C332.8,348,345,358.3,355.7,368.6
	L355.7,368.6z"/>
<path class="agile_0" d="M104.7,618.4H223c9.1,83.2,47.9,149.2,116.6,198.5c-2.9,0-5.8,0-8.7,0c-49.3,0-98.6,0.2-147.9-0.3
	c-4.6,0-11.1-2.4-13.5-5.8c-39.1-56.5-60.6-119.2-65.3-187.7C104,622,104.4,620.9,104.7,618.4L104.7,618.4z"/>
</svg>
