<?xml version="1.0" encoding="UTF-8"?>
<svg id="Layer_1" data-name="Layer 1" xmlns="http://www.w3.org/2000/svg" viewBox="0 0 1196.26 1196.26">
  <path d="M462.14,146c0,18.62-.05,34.74,.01,50.85,.08,19.97,6.58,26.53,26.49,26.92,184,3.65,338.8,138.58,366.72,319.8,1.82,11.85,2.57,23.86,3.94,36.99h-118.46c-2.65-13.67-4.75-27.79-8.18-41.57-27.49-110.47-123.84-189.87-237.27-195.85-26.98-1.42-33.1,4.22-33.47,31.37-.2,14.64-.04,29.29-.04,44.5-47.27-45.48-93.21-89.67-136.93-131.73,46.33-47.71,90.77-93.48,137.18-141.28Z"/>
  <path d="M858.67,622.77c-8.23,196.48-174.17,350.6-356.73,355.29,0-4.21,0-8.39,0-12.57,0-32.26,.12-64.51-.09-96.77-.04-6.39,1.23-9.61,8.61-10.57,126.18-16.52,213.34-105.63,229.62-235.38h118.59Z"/>
  <path d="M1019.32,1057.77c0-19.35,.05-35.87-.01-52.38-.08-19.21-6.64-25.79-25.97-25.8-104.85-.04-209.7-.02-314.55-.02h-15.03c17.63-10.57,32.68-19.07,47.21-28.41,35.22-22.63,66.09-50.27,92.33-82.89,4.93-6.13,10.13-8.08,17.74-8.05,56.31,.28,112.62,.16,168.92,.15,23.6,0,29.08-5.09,29.49-28.22,.28-15.84,.05-31.69,.05-47.29,46.64,46.04,92.23,91.04,134.64,132.9-43.62,45.3-88.19,91.57-134.82,140Z"/>
  <path d="M461.63,860.83v118.74h-12.9c-125.41,0-250.83,0-376.24,0-22.3,0-28.08-5.85-28.1-28.33-.01-22.52-.13-45.04,.04-67.56,.12-15.64,7.38-23.23,22.64-23.24,129.3-.09,258.59-.05,387.89-.03,1.88,0,3.76,.23,6.66,.42Z"/>
  <path d="M356.82,372.31c-20.31,16.47-40.52,30.45-57.83,47.38-41.94,41.03-66.12,91.46-73.03,149.82-1.05,8.88-3.48,12.57-13.34,12.39-35.31-.65-70.63-.25-105.77-.25-16.77-83.6,81.58-251.68,175.79-300.01,1.14,28.19,24.31,40.88,40.48,58.41,10.77,11.67,22.94,22.04,33.7,32.25Z"/>
  <path d="M105.77,622.12h118.32c9.06,83.25,47.88,149.15,116.57,198.52-2.89,0-5.78,0-8.67,0-49.31,0-98.62,.16-147.93-.26-4.61-.04-11.08-2.36-13.49-5.84-39.13-56.45-60.56-119.21-65.34-187.69-.08-1.11,.24-2.24,.53-4.74Z"/>
</svg>