<?xml version="1.0" encoding="UTF-8"?>
<svg id="uuid-741ecc00-1a2c-4dfa-9b68-715cb75e59a4" data-name="Layer 1"
  xmlns="http://www.w3.org/2000/svg" xmlns:xlink="http://www.w3.org/1999/xlink"
  viewBox="0 0 512 408">
  <defs>
    <style>
      .uuid-31963903-573b-4359-a7d8-7d3748a89e64 {
      fill: url(#uuid-3b5542f6-25db-45e9-9adc-78604977b606);
      }

      .uuid-92f2a193-603d-403c-9eb8-8374092f91e5 {
      fill: url(#uuid-7893083e-d870-4fe7-b75f-1075b48bfb95);
      stroke: #fff;
      }
    </style>
    <linearGradient id="uuid-3b5542f6-25db-45e9-9adc-78604977b606" x1="51.55" y1="368.3" x2="498.95"
      y2="13.16" gradientTransform="translate(0 410) scale(1 -1)" gradientUnits="userSpaceOnUse">
      <stop offset="0" stop-color="#9013fe" />
      <stop offset="1" stop-color="#6610f2" />
    </linearGradient>
    <linearGradient id="uuid-7893083e-d870-4fe7-b75f-1075b48bfb95" x1="189.15" y1="297.68"
      x2="289.15" y2="128.55" gradientTransform="translate(0 410) scale(1 -1)"
      gradientUnits="userSpaceOnUse">
      <stop offset="0" stop-color="#fff" />
      <stop offset="1" stop-color="#f1e5fc" />
    </linearGradient>
  </defs>
  <path class="uuid-31963903-573b-4359-a7d8-7d3748a89e64"
    d="M56.48,53.32C55.51,25.58,77.13,0,106.34,0H405.7c29.21,0,50.83,25.58,49.86,53.32-.93,26.65,.28,61.17,8.96,89.31,8.71,28.23,23.41,46.08,47.48,48.37v26c-24.07,2.29-38.77,20.14-47.48,48.37-8.69,28.14-9.89,62.66-8.96,89.31,.97,27.74-20.65,53.32-49.86,53.32H106.34c-29.21,0-50.83-25.58-49.86-53.32,.93-26.65-.28-61.17-8.97-89.31-8.71-28.23-23.45-46.08-47.52-48.37v-26c24.07-2.29,38.8-20.14,47.52-48.37,8.69-28.15,9.89-62.66,8.97-89.31Z" />
  <path class="uuid-92f2a193-603d-403c-9eb8-8374092f91e5"
    d="M267.1,312.46c47.3,0,75.8-23.16,75.8-61.35,0-28.87-20.34-49.78-50.53-53.09v-1.2c22.18-3.61,39.59-24.21,39.59-47.22,0-32.78-25.88-54.14-65.32-54.14h-88.74v217h89.2Zm-54.69-189.48h45.91c24.96,0,39.13,11.13,39.13,31.28,0,21.51-16.48,33.54-46.37,33.54h-38.67V122.98Zm0,161.96v-71.43h45.6c32.66,0,49.61,12.03,49.61,35.49s-16.48,35.94-47.61,35.94h-47.6Z" />
</svg>