<?xml version="1.0" encoding="UTF-8"?>
<svg id="Layer_1" data-name="Layer 1" xmlns="http://www.w3.org/2000/svg" viewBox="0 0 1052 1026">
  <path d="M1052,171V856c-.57,3.59-1.19,7.17-1.69,10.77-10.39,73.73-65.64,135.32-137.96,153.36-10.61,2.65-21.55,3.95-32.34,5.87H173c-3.6-.55-7.21-1.08-10.81-1.66-69.69-11.09-118.7-49.12-147.37-113.44-7.78-17.46-11.33-36.07-13.81-54.91,0-228.67,0-457.33,0-686,.56-3.24,1.1-6.49,1.69-9.72C16.87,82.11,61.95,31.14,137.79,7.75c11.35-3.5,23.46-4.56,35.21-6.75,235.67,0,471.33,0,707,0,3.77,.56,7.55,1.08,11.31,1.69,69.45,11.24,118.3,49.25,146.87,113.39,7.78,17.46,11.33,36.08,13.82,54.92ZM526.18,989.75c103.99,0,207.98,.17,311.97-.2,13.88-.05,28.08-1.37,41.56-4.54,80.33-18.88,133.98-87.21,134.02-170.23,.11-200.81,.1-401.63-.11-602.44-.01-12.08-1.09-24.38-3.55-36.19-17.24-82.78-86.32-138.86-170.76-138.89-208.48-.07-416.96-.08-625.44,.12-11.91,.01-24.05,1.07-35.7,3.46C96.26,57.65,39.46,126.81,39.34,210.7c-.29,201.81-.11,403.62-.07,605.44,0,24.28,4.19,47.94,14.59,69.9,31.88,67.29,85.56,102.65,159.85,103.44,104.14,1.1,208.31,.28,312.46,.28Z"/>
  <path d="M428,613.96c-25.33,0-50.66,.13-75.98-.12-4.69-.05-6.69,1.48-8.08,5.83-10.15,31.89-20.52,63.71-30.83,95.55-2.23,6.87-3.42,7.74-10.74,7.74-25.49,0-50.99,0-76.48,0-8.96,0-10.38-1.95-7.46-10.33,25.34-72.92,50.69-145.85,76.04-218.77,21.11-60.72,42.21-121.45,63.34-182.16,4.78-13.72,7.69-27.72,7.58-42.35-.05-6.57,1.08-7.28,7.77-7.29,35.66-.01,71.32,.07,106.97-.1,4.74-.02,7.13,1.49,8.74,6.05,52.45,148.33,105.02,296.62,157.57,444.91,.39,1.09,.86,2.17,1.15,3.28,1.14,4.41-.51,6.66-5.11,6.72-7,.09-14,.03-20.99,.03-22.33,0-44.66,0-66.98,0-7.14,0-8.1-.68-10.43-7.44-11.02-31.97-22.13-63.91-32.93-95.95-1.5-4.46-3.64-5.74-8.18-5.71-24.99,.21-49.99,.1-74.98,.1Zm-55.92-89h110.35c-18.83-60.73-37.53-121.02-56.42-181.93-15.31,61.81-36.11,121.04-53.94,181.93Z"/>
  <path d="M793.87,550.5c0,55.32,0,110.64,0,165.97,0,8.39-.06,8.41-8.37,8.41-26.33,0-52.66,0-78.98,0-8.95,0-9.52-.55-9.52-9.74-.01-56.82,0-113.64,0-170.46,0-53.32,0-106.64,0-159.97,0-9.17,.48-9.64,9.55-9.65,26.16-.01,52.32-.01,78.48,0,7.82,0,8.84,1.02,8.85,8.97,.01,55.49,0,110.98,0,166.47Z"/>
  <path d="M800.28,286.46c.68,11.92-4.42,25.3-14.75,36.13-9.17,9.62-20.76,15.43-34.5,15.13-7.4-.16-15.07-.12-22.13-2.01-23.02-6.16-36.24-26.54-36.91-49.21-.4-13.39,1.76-25.82,10.24-36.53,10.35-13.06,23.84-20.16,40.62-20.9,10.95-.48,21.65,.41,31.35,5.96,18.56,10.61,26.07,27.34,26.07,51.42Z"/>
</svg>