<?xml version="1.0" encoding="UTF-8"?>
<svg id="Layer_1" data-name="Layer 1" xmlns="http://www.w3.org/2000/svg" viewBox="0 0 1052 1026">
  <path d="M882,1026H171c-4.6-.66-9.23-1.14-13.79-2.01-68.46-13.09-116.5-51.56-143.62-115.89-7.02-16.66-10.26-34.29-12.6-52.11,0-228.33,0-456.67,0-685,.55-3.59,1.04-7.19,1.67-10.77C16.25,83.8,59.94,33.17,133.51,8.75c12.03-3.99,24.97-5.23,37.49-7.75,237,0,474,0,711,0,3.77,.56,7.56,1.05,11.31,1.7,69.42,12.05,117.92,50.63,145.74,115.25,7.28,16.92,10.6,34.89,12.95,53.05V856c-.88,5.56-1.54,11.16-2.67,16.67-14.54,71.09-56.04,119.21-124.16,143.76-13.75,4.96-28.75,6.46-43.17,9.56ZM526.63,37.28c-103.99,0-207.98,0-311.97,0-24.8,0-48.98,3.88-71.43,14.48-67.77,32-103.35,86.12-103.66,160.76-.85,200.65-.35,401.3-.15,601.95,.01,11.92,1.03,24.05,3.41,35.71,16.93,83.02,86.43,139.5,171.33,139.52,208.15,.06,416.3,.08,624.44-.13,12.08-.01,24.37-1.09,36.2-3.49,81.85-16.58,138.73-86.1,138.84-170.36,.26-201.48,.11-402.96,.06-604.45,0-24.45-4.18-48.28-14.67-70.39-31.92-67.29-85.61-102.58-159.93-103.33-104.15-1.05-208.31-.26-312.47-.26Z"/>
  <path d="M237.8,494.73c0-71.83,0-143.65,0-215.48,0-2-.01-4,0-6,.09-8.33,.9-9.09,9.19-9.2,49.47-.64,98.95-2.34,148.39-1.65,41.55,.59,81.11,10.28,115.41,35.58,31.22,23.03,48.94,54.34,55.02,92.23,5.06,31.54,3.32,62.84-8.62,92.75-16.95,42.48-48.91,69.18-91.55,83.74-18.95,6.47-38.54,10.38-58.56,11.11-22.1,.8-44.22,.83-66.34,1.13-8.59,.12-8.61,.03-8.62,8.46,0,42.5,0,84.99,0,127.49,0,9.66-.62,10.31-10.13,10.32-24.16,.02-48.33,.01-72.49,0q-11.68,0-11.7-11.51c0-72.99,0-145.99,0-218.98Zm95.13-72.74c0,22.82,.03,45.65-.04,68.47-.01,3.44,.53,5.71,4.78,5.76,11.64,.14,23.27,.8,34.91,.85,18.77,.07,37.21-2.72,54.77-9.3,20.87-7.82,37.03-20.85,42.97-43.64,3.36-12.9,4.02-26,1.58-39.05-2.9-15.5-9.89-28.84-22.63-38.74-16.35-12.7-35.63-17.06-55.53-18.21-17.93-1.04-35.97-.28-53.97-.19-6.05,.03-6.82,.95-6.83,7.08-.02,22.33,0,44.65,0,66.98Z"/>
  <path d="M615.29,668.96c0-11-.01-22,.01-32.99,0-1.83,.02-3.68,.3-5.48,.61-3.93,2.54-5.02,6.27-3.01,6.14,3.32,12.27,6.75,18.68,9.5,22.16,9.5,45.26,15.17,69.33,17.29,15.2,1.34,30.29,1.66,45.05-2.4,5.26-1.45,10.85-4.07,14.7-7.8,8.85-8.56,7.42-22.79-3.49-29.83-10.54-6.81-21.86-12.76-33.49-17.46-25.03-10.11-50.07-20.03-72.29-35.73-22.99-16.25-38.76-37.53-42.9-65.79-4.23-28.94,2.36-55.6,20.69-78.75,19.11-24.14,45.03-36.61,74.67-42.45,22.56-4.45,45.35-4.49,68.09-2.81,21.53,1.59,43,4.03,63.37,12.18,5.11,2.04,7.56,5.32,7.58,10.43,.1,23.16,.13,46.33-.01,69.49-.03,5.72-4.54,7.88-10.41,5.53-9.56-3.83-18.93-8.31-28.76-11.26-24.08-7.21-48.83-9.95-73.94-8.58-5.25,.29-10.51,1.62-15.62,3.03-8.82,2.45-14.25,8.25-15.56,17.5-1.15,8.17,2.84,14.24,8.76,18.95,13.35,10.6,29.1,16.75,44.82,22.65,24.4,9.15,48.13,19.66,69.39,34.85,22.33,15.96,35.72,37.43,38.53,65.28,2.96,29.25-3.92,55.56-22.6,78.28-15.86,19.29-36.92,30.75-60.75,37.26-24.42,6.67-49.29,8.52-74.58,7.33-24.87-1.18-49.27-4.48-72.98-12.19-4.74-1.54-9.26-3.74-13.99-5.31-6.72-2.24-9.17-6.8-8.99-13.71,.29-11.32,.08-22.66,.08-33.99Z"/>
</svg>