<svg width="40" height="41" viewBox="0 0 40 41" fill="none" xmlns="http://www.w3.org/2000/svg">
<g clip-path="url(#clip0_14_393)">
<path d="M20 40.8757C31.0457 40.8757 40 31.9214 40 20.8757C40 9.83004 31.0457 0.875732 20 0.875732C8.9543 0.875732 0 9.83004 0 20.8757C0 31.9214 8.9543 40.8757 20 40.8757Z" fill="white"/>
<path d="M17.0923 15.3636H19.2003V22.9659C19.2003 23.7992 19.0033 24.5322 18.6094 25.1648C18.2192 25.7973 17.67 26.2917 16.9616 26.6477C16.2533 27 15.4257 27.1761 14.4787 27.1761C13.5279 27.1761 12.6984 27 11.9901 26.6477C11.2817 26.2917 10.7325 25.7973 10.3423 25.1648C9.95218 24.5322 9.7571 23.7992 9.7571 22.9659V15.3636H11.8651V22.7898C11.8651 23.2746 11.9711 23.7064 12.1832 24.0852C12.3991 24.464 12.7022 24.7614 13.0923 24.9773C13.4825 25.1894 13.9446 25.2955 14.4787 25.2955C15.0128 25.2955 15.4749 25.1894 15.8651 24.9773C16.259 24.7614 16.562 24.464 16.7741 24.0852C16.9863 23.7064 17.0923 23.2746 17.0923 22.7898V15.3636ZM23.2528 15.3636L25.8153 19.625H25.9062L28.4801 15.3636H30.8835L27.2983 21.1818L30.9403 27H28.4972L25.9062 22.767H25.8153L23.2244 27H20.7926L24.4688 21.1818L20.8381 15.3636H23.2528Z" fill="black"/>
</g>
<defs>
<clipPath id="clip0_14_393">
<rect width="40" height="40" fill="white" transform="translate(0 0.875732)"/>
</clipPath>
</defs>
</svg>
